<svg xmlns="http://www.w3.org/2000/svg" width="65" height="65" viewBox="0 0 65 65">
    <g fill="#FFF" fill-rule="evenodd">
        <path d="M64.459 32.5c0-6.652-2.024-13.027-5.852-18.438l-1.933 1.366A29.404 29.404 0 0 1 62.092 32.5c0 16.317-13.275 29.592-29.592 29.592S2.908 48.817 2.908 32.5 16.183 2.908 32.5 2.908c7.155 0 13.882 2.504 19.235 7.102H45.52v2.368h9.47c.654 0 1.183-.53 1.183-1.184v-9.47h-2.367V8.69C47.942 3.422 40.468.541 32.5.541 14.878.541.541 14.878.541 32.5S14.878 64.459 32.5 64.459 64.459 50.122 64.459 32.5z"/>
        <path fill-rule="nonzero" d="M32.5 8.827c-13.053 0-23.673 10.62-23.673 23.673 0 13.053 10.62 23.673 23.673 23.673 13.053 0 23.673-10.62 23.673-23.673 0-13.053-10.62-23.673-23.673-23.673zm21.246 24.857a21.188 21.188 0 0 1-5.39 12.997L45.172 43.5 43.5 45.173l3.181 3.182a21.188 21.188 0 0 1-12.997 5.39v-4.674h-2.368v4.675a21.188 21.188 0 0 1-12.997-5.39l3.181-3.183-1.673-1.673-3.182 3.181a21.188 21.188 0 0 1-5.39-12.997h4.674v-2.368h-4.675a21.188 21.188 0 0 1 5.39-12.997l3.183 3.181 1.673-1.673-3.181-3.182a21.188 21.188 0 0 1 12.997-5.39v4.674h2.368v-4.675c4.98.276 9.502 2.261 12.997 5.39L43.5 19.828l1.673 1.673 3.182-3.181a21.188 21.188 0 0 1 5.39 12.997h-4.674v2.368h4.675z"/>
        <path d="M30.133 25.398h-8.286c-.655 0-1.184.53-1.184 1.184v3.55h2.368v-2.367h5.918v2.771l-7.568 3.244a1.182 1.182 0 0 0-.718 1.087v3.551c0 .655.53 1.184 1.184 1.184h9.47v-2.367H23.03v-1.588l7.568-3.243c.436-.186.717-.614.717-1.088v-4.734c0-.655-.529-1.184-1.183-1.184zM41.97 32.5H36.05v-7.102h-2.367v8.286c0 .654.529 1.183 1.183 1.183h7.102v4.735h2.368V25.398h-2.368V32.5z"/>
    </g>
</svg>
