<svg xmlns="http://www.w3.org/2000/svg" width="60" height="73" viewBox="0 0 60 73">
    <g fill="#FFF" fill-rule="nonzero">
        <path d="M59.583 62.657l-7.566-9.728c2.451-.732 4.57-2.3 5.986-4.432 1.782-3.08.976-6.839.196-10.47a28.599 28.599 0 0 1-.841-5.695 28.59 28.59 0 0 1 .841-5.7c.775-3.634 1.586-7.391-.196-10.466-1.845-3.189-5.561-4.369-9.155-5.508a26.631 26.631 0 0 1-5.17-2.024 25.263 25.263 0 0 1-4.141-3.358C36.87 2.802 33.847 0 30 0c-3.847 0-6.87 2.802-9.538 5.275a25.269 25.269 0 0 1-4.14 3.359 26.624 26.624 0 0 1-5.169 2.02c-3.594 1.138-7.31 2.318-9.155 5.507-1.782 3.08-.976 6.84-.196 10.47a28.59 28.59 0 0 1 .84 5.7 28.59 28.59 0 0 1-.841 5.7c-.775 3.634-1.586 7.391.196 10.466a10.953 10.953 0 0 0 5.993 4.431L.417 62.656a1.243 1.243 0 0 0 1.136 1.997l8.891-1.11 2.195 7.68a1.243 1.243 0 0 0 2.178.421l7.94-10.214A11.499 11.499 0 0 0 30 64.663a11.499 11.499 0 0 0 7.242-3.233l7.941 10.21a1.243 1.243 0 0 0 2.178-.417l2.195-7.679 8.89 1.11a1.244 1.244 0 0 0 1.137-1.997zm-45.227 5.527l-1.814-6.35a1.244 1.244 0 0 0-1.349-.891l-6.964.87 6.241-8.023.688.22a26.623 26.623 0 0 1 5.163 2.02 25.263 25.263 0 0 1 4.142 3.357l.428.395-6.535 8.402zM30 62.176c-2.873 0-5.289-2.238-7.848-4.61a27.41 27.41 0 0 0-4.587-3.69 28.833 28.833 0 0 0-5.662-2.239c-3.287-1.043-6.392-2.028-7.755-4.383-1.3-2.25-.629-5.385.084-8.705.513-2.036.813-4.12.898-6.217a30.44 30.44 0 0 0-.897-6.218c-.713-3.319-1.384-6.454-.083-8.705 1.368-2.355 4.468-3.34 7.754-4.383a28.841 28.841 0 0 0 5.66-2.238 27.41 27.41 0 0 0 4.587-3.69C24.71 4.725 27.127 2.487 30 2.487s5.289 2.238 7.848 4.611a27.41 27.41 0 0 0 4.587 3.69c1.803.943 3.701 1.694 5.662 2.238 3.287 1.043 6.392 2.028 7.755 4.383 1.3 2.25.629 5.385-.084 8.705a30.452 30.452 0 0 0-.898 6.218 30.44 30.44 0 0 0 .897 6.217c.713 3.32 1.384 6.454.083 8.705-1.368 2.355-4.468 3.34-7.754 4.383a28.841 28.841 0 0 0-5.66 2.239 27.41 27.41 0 0 0-4.587 3.69c-2.56 2.372-4.976 4.61-7.849 4.61zm18.813-1.233a1.244 1.244 0 0 0-1.349.891l-1.82 6.35-6.534-8.4.428-.396a25.269 25.269 0 0 1 4.14-3.359 26.624 26.624 0 0 1 5.169-2.02l.688-.22 6.242 8.024-6.964-.87z"/>
        <path d="M30 9.948c-12.362 0-22.383 10.022-22.383 22.384S17.638 54.715 30 54.715c12.362 0 22.383-10.021 22.383-22.383C52.37 19.975 42.356 9.962 30 9.948zm0 42.28c-10.988 0-19.896-8.908-19.896-19.896 0-10.989 8.908-19.897 19.896-19.897 10.988 0 19.896 8.908 19.896 19.897C49.883 43.315 40.983 52.215 30 52.228z"/>
        <path d="M44.348 27.137a2.487 2.487 0 0 0-2.01-1.023h-7.613l-2.362-7.246a2.487 2.487 0 0 0-4.726 0l-2.356 7.246h-7.62a2.487 2.487 0 0 0-1.464 4.498l6.163 4.476-2.354 7.247a2.487 2.487 0 0 0 3.827 2.78L30 40.64l6.164 4.476a2.452 2.452 0 0 0 2.925 0 2.451 2.451 0 0 0 .903-2.78l-2.354-7.248 6.163-4.476a2.487 2.487 0 0 0 .547-3.475zm-8.904 6.472A1.244 1.244 0 0 0 34.993 35l2.634 8.105-6.896-5.008a1.243 1.243 0 0 0-1.46 0l-6.896 5.008L25.007 35a1.244 1.244 0 0 0-.451-1.39L17.662 28.6h8.522c.538 0 1.016-.347 1.182-.86L30 19.637l2.634 8.105c.166.512.644.859 1.182.859l8.522.001-6.894 5.008z"/>
    </g>
</svg>
