<svg xmlns="http://www.w3.org/2000/svg" width="65" height="55" viewBox="0 0 65 55">
    <g fill="#FFF" fill-rule="evenodd">
        <path fill-rule="nonzero" d="M23.448 21.334a3.888 3.888 0 0 0-3.884 3.884 3.888 3.888 0 0 0 3.884 3.884 3.888 3.888 0 0 0 3.884-3.884 3.888 3.888 0 0 0-3.884-3.884zm0 5.863a1.982 1.982 0 0 1-1.98-1.98c0-1.09.888-1.979 1.98-1.979 1.091 0 1.98.888 1.98 1.98 0 1.091-.889 1.98-1.98 1.98zM33.574 21.334a3.888 3.888 0 0 0-3.884 3.884 3.888 3.888 0 0 0 3.884 3.884 3.888 3.888 0 0 0 3.884-3.884 3.888 3.888 0 0 0-3.884-3.884zm0 5.863a1.982 1.982 0 0 1-1.98-1.98c0-1.09.888-1.979 1.98-1.979 1.091 0 1.98.888 1.98 1.98 0 1.091-.889 1.98-1.98 1.98zM43.7 21.334a3.888 3.888 0 0 0-3.885 3.884 3.888 3.888 0 0 0 3.884 3.884 3.888 3.888 0 0 0 3.884-3.884 3.888 3.888 0 0 0-3.884-3.884zm0 5.863a1.982 1.982 0 0 1-1.98-1.98c0-1.09.888-1.979 1.98-1.979 1.09 0 1.979.888 1.979 1.98 0 1.091-.888 1.98-1.98 1.98zM23.448 30.808a3.888 3.888 0 0 0-3.884 3.884 3.888 3.888 0 0 0 3.884 3.884 3.888 3.888 0 0 0 3.884-3.884 3.888 3.888 0 0 0-3.884-3.884zm0 5.863a1.982 1.982 0 0 1-1.98-1.98c0-1.09.888-1.979 1.98-1.979 1.091 0 1.98.888 1.98 1.98 0 1.091-.889 1.98-1.98 1.98zM43.7 30.808a3.888 3.888 0 0 0-3.885 3.884 3.888 3.888 0 0 0 3.884 3.884 3.888 3.888 0 0 0 3.884-3.884 3.888 3.888 0 0 0-3.884-3.884zm0 5.863a1.982 1.982 0 0 1-1.98-1.98c0-1.09.888-1.979 1.98-1.979 1.09 0 1.979.888 1.979 1.98 0 1.091-.888 1.98-1.98 1.98zM33.574 30.808a3.888 3.888 0 0 0-3.884 3.884 3.888 3.888 0 0 0 3.884 3.884 3.888 3.888 0 0 0 3.884-3.884 3.888 3.888 0 0 0-3.884-3.884zm0 5.863a1.982 1.982 0 0 1-1.98-1.98c0-1.09.888-1.979 1.98-1.979 1.091 0 1.98.888 1.98 1.98 0 1.091-.889 1.98-1.98 1.98zM33.574 40.282a3.888 3.888 0 0 0-3.884 3.884 3.888 3.888 0 0 0 3.884 3.884 3.888 3.888 0 0 0 3.884-3.884 3.888 3.888 0 0 0-3.884-3.884zm0 5.863a1.982 1.982 0 0 1-1.98-1.98c0-1.09.888-1.979 1.98-1.979 1.091 0 1.98.888 1.98 1.98 0 1.091-.889 1.979-1.98 1.979zM23.448 40.282a3.888 3.888 0 0 0-3.884 3.884 3.888 3.888 0 0 0 3.884 3.884 3.888 3.888 0 0 0 3.884-3.884 3.888 3.888 0 0 0-3.884-3.884zm0 5.863a1.982 1.982 0 0 1-1.98-1.98c0-1.09.888-1.979 1.98-1.979 1.091 0 1.98.888 1.98 1.98 0 1.091-.889 1.979-1.98 1.979z"/>
        <path d="M14.67 25.218l1.399-1.4a.952.952 0 1 0-1.347-1.346l-1.4 1.4-1.4-1.4a.952.952 0 0 0-1.346 1.346l1.4 1.4-1.4 1.4a.952.952 0 1 0 1.347 1.346l1.4-1.4 1.399 1.4a.95.95 0 0 0 1.347 0 .952.952 0 0 0 0-1.346l-1.4-1.4zM14.67 34.692l1.399-1.4a.952.952 0 1 0-1.347-1.346l-1.4 1.4-1.4-1.4a.952.952 0 0 0-1.346 1.346l1.4 1.4-1.4 1.4a.952.952 0 1 0 1.347 1.346l1.4-1.4 1.399 1.4a.95.95 0 0 0 1.347 0 .952.952 0 0 0 0-1.346l-1.4-1.4zM16.069 45.565l-1.4-1.4 1.4-1.4a.953.953 0 0 0-1.347-1.346l-1.4 1.4-1.4-1.4a.953.953 0 0 0-1.346 1.347l1.4 1.4-1.4 1.4a.952.952 0 0 0 1.347 1.346l1.4-1.4 1.399 1.4a.95.95 0 0 0 1.347 0 .952.952 0 0 0 0-1.347z"/>
        <path fill-rule="nonzero" d="M64.945 48.398l-2.597-13.666a.953.953 0 0 0-1.87.356l2.596 13.666c.145.765-.5 1.487-1.38 1.487h-14.09l9.139-9.14a.964.964 0 0 0 .279-.673V16.902l2.61 13.742a.952.952 0 0 0 1.872-.356l-4.489-23.62a2.653 2.653 0 0 0-2.645-2.53h-8.345V1.078a.952.952 0 1 0-1.904 0v3.061h-6.377V1.077a.952.952 0 1 0-1.904 0v3.061h-6.377V1.077a.952.952 0 1 0-1.904 0v3.061h-6.377V1.077a.952.952 0 1 0-1.905 0v3.061h-6.376V1.077a.952.952 0 1 0-1.905 0v3.061H2.652A2.655 2.655 0 0 0 0 6.79v45.278a2.655 2.655 0 0 0 2.652 2.651h23.637a.952.952 0 1 0 0-1.904H2.652a.748.748 0 0 1-.748-.747V16.5h53.213v22.974H44.43a2.655 2.655 0 0 0-2.652 2.652v10.688H30.733a.952.952 0 1 0 0 1.904H42.73a.957.957 0 0 0 .674-.279l2.295-2.295h15.995c2.068 0 3.621-1.8 3.251-3.747zm-63.04-33.8V6.79c0-.412.335-.747.747-.747h8.344v4.277a.952.952 0 1 0 1.905 0V6.043h6.376v4.277a.952.952 0 1 0 1.905 0V6.043h6.377v4.277a.952.952 0 1 0 1.904 0V6.043h6.377v4.277a.952.952 0 1 0 1.904 0V6.043h6.377v4.277a.952.952 0 1 0 1.904 0V6.043h8.345c.412 0 .747.335.747.747v7.807H1.904zm41.777 36.87v-9.34c0-.413.336-.748.748-.748h9.34L43.682 51.468z"/>
    </g>
</svg>
