<svg xmlns="http://www.w3.org/2000/svg" width="65" height="65" viewBox="0 0 65 65">
    <path fill="#FFF" fill-rule="nonzero" d="M61.855 0H32.5a3.149 3.149 0 0 0-3.145 3.145v10.15a20.816 20.816 0 0 0-8.387-1.763C9.406 11.532 0 20.938 0 32.5c0 9.928 6.947 18.4 16.459 20.48l-8.072 8.455V65h46.13V41.321l6.29-6.29v7.953h2.096V31.452H51.371v2.096h7.953L44.001 48.872l-5.44-4.988A20.813 20.813 0 0 0 41.935 32.5a20.88 20.88 0 0 0-.262-3.145h20.182A3.149 3.149 0 0 0 65 26.21V3.145A3.149 3.149 0 0 0 61.855 0zm-13.63 4.194V6.29H46.13V4.194h-2.097V6.29h-2.097V2.097H52.42V6.29h-2.096V4.194h-2.097zM6.345 31.452a14.592 14.592 0 0 1 3.544-8.549l2.925 2.925 1.483-1.482-2.925-2.925a14.595 14.595 0 0 1 8.548-3.545v4.14h2.097v-4.14a14.592 14.592 0 0 1 8.549 3.545l-2.925 2.925 1.482 1.482 2.925-2.925a14.595 14.595 0 0 1 3.545 8.549h-4.14v2.096h4.155a14.59 14.59 0 0 1-1.77 6.007l-2.435-2.231-6.274 6.573c-.01-.097-.009-.196-.024-.292l-1.881-11.292a2.28 2.28 0 0 0-2.255-1.91 2.28 2.28 0 0 0-2.255 1.91l-1.881 11.29a4.112 4.112 0 0 0-.058.69v.788c0 .551.113 1.075.307 1.558-5.884-1.62-10.29-6.81-10.737-13.09h4.14v-2.097h-4.14zM18.87 45.08v-.789c0-.114.01-.23.028-.345l1.881-11.289c.032-.183.343-.183.373 0l1.881 11.29c.021.114.03.23.03.344v.789c0 1.156-.94 2.096-2.096 2.096a2.099 2.099 0 0 1-2.097-2.096zm8.387-.379v18.201h-4.193V49.095l4.193-4.393zm2.097-2.196l2.146-2.248 2.047 1.877v20.768h-4.193V42.506zm6.29 1.55l4.194 3.845v15.002h-4.194V44.056zM20.968 62.903h-4.194v-7.218l4.194-4.393v11.611zm-10.484-.629l4.193-4.393v5.022h-4.193v-.629zm41.935.63h-4.193V47.61l4.193-4.193v19.485zm-8.355-11.13l2.065-2.066v13.195h-4.194v-13.08l2.129 1.95zm-7.069-9.324l-1.576-1.445a16.7 16.7 0 0 0 2.323-8.505c0-9.249-7.525-16.774-16.774-16.774-9.25 0-16.774 7.525-16.774 16.774 0 8.935 7.029 16.242 15.846 16.727l-1.838 1.925C8.988 49.799 2.097 41.878 2.097 32.5c0-10.405 8.466-18.871 18.87-18.871 10.406 0 18.872 8.466 18.872 18.871 0 3.554-.985 6.967-2.844 9.95zm25.908-16.24a1.05 1.05 0 0 1-1.048 1.048h-20.61a21.024 21.024 0 0 0-9.793-12.889V3.145c0-.578.47-1.048 1.048-1.048h7.339v6.29h14.677v-6.29h7.339c.578 0 1.048.47 1.048 1.048V26.21z"/>
</svg>
