<svg xmlns="http://www.w3.org/2000/svg" width="61" height="65" viewBox="0 0 61 65">
    <g fill="#FFF" fill-rule="evenodd">
        <path fill-rule="nonzero" d="M59.044 16.09h-20.11V1.314C38.934.583 38.35 0 37.62 0H1.42C.69 0 .105.584.105 1.313V63.66c0 .73.584 1.313 1.313 1.313h57.625c.73 0 1.313-.583 1.313-1.313V17.404c0-.73-.584-1.313-1.313-1.313zm-22.737 1.314V62.36H2.733V2.627h33.574v14.777zm21.424 44.943H38.934V18.704H57.73v43.643z"/>
        <path d="M8.821 12.867c.73 0 1.314-.583 1.314-1.313V8.65c0-.73-.584-1.313-1.314-1.313-.73 0-1.313.583-1.313 1.313v2.905c0 .73.584 1.313 1.313 1.313zM15.958 12.867c.73 0 1.313-.583 1.313-1.313V8.65c0-.73-.583-1.313-1.313-1.313s-1.313.583-1.313 1.313v2.905c0 .73.584 1.313 1.313 1.313zM23.082 12.867c.73 0 1.313-.583 1.313-1.313V8.65c0-.73-.584-1.313-1.313-1.313-.73 0-1.314.583-1.314 1.313v2.905c0 .73.597 1.313 1.314 1.313zM30.218 12.867c.73 0 1.314-.583 1.314-1.313V8.65c0-.73-.584-1.313-1.314-1.313-.73 0-1.313.583-1.313 1.313v2.905c0 .73.584 1.313 1.313 1.313zM8.821 21.861c.73 0 1.314-.583 1.314-1.313V17.63c0-.73-.584-1.314-1.314-1.314-.73 0-1.313.584-1.313 1.314v2.918c0 .716.584 1.313 1.313 1.313zM15.958 21.861c.73 0 1.313-.583 1.313-1.313V17.63c0-.73-.583-1.314-1.313-1.314s-1.313.584-1.313 1.314v2.918c0 .716.584 1.313 1.313 1.313zM23.082 21.861c.73 0 1.313-.583 1.313-1.313V17.63c0-.73-.584-1.314-1.313-1.314-.73 0-1.314.584-1.314 1.314v2.918c0 .716.597 1.313 1.314 1.313zM30.218 21.861c.73 0 1.314-.583 1.314-1.313V17.63c0-.73-.584-1.314-1.314-1.314-.73 0-1.313.584-1.313 1.314v2.918c0 .716.584 1.313 1.313 1.313zM8.821 30.842c.73 0 1.314-.584 1.314-1.313v-2.906c0-.73-.584-1.313-1.314-1.313-.73 0-1.313.584-1.313 1.313v2.906c0 .73.584 1.313 1.313 1.313zM15.958 30.842c.73 0 1.313-.584 1.313-1.313v-2.906c0-.73-.583-1.313-1.313-1.313s-1.313.584-1.313 1.313v2.906c0 .73.584 1.313 1.313 1.313zM23.082 30.842c.73 0 1.313-.584 1.313-1.313v-2.906c0-.73-.584-1.313-1.313-1.313-.73 0-1.314.584-1.314 1.313v2.906c0 .73.597 1.313 1.314 1.313zM30.218 30.842c.73 0 1.314-.584 1.314-1.313v-2.906c0-.73-.584-1.313-1.314-1.313-.73 0-1.313.584-1.313 1.313v2.906c0 .73.584 1.313 1.313 1.313zM8.821 39.836c.73 0 1.314-.584 1.314-1.314v-2.905c0-.73-.584-1.313-1.314-1.313-.73 0-1.313.584-1.313 1.313v2.905c0 .717.584 1.314 1.313 1.314zM15.958 39.836c.73 0 1.313-.584 1.313-1.314v-2.905c0-.73-.583-1.313-1.313-1.313s-1.313.584-1.313 1.313v2.905c0 .717.584 1.314 1.313 1.314zM23.082 39.836c.73 0 1.313-.584 1.313-1.314v-2.905c0-.73-.584-1.313-1.313-1.313-.73 0-1.314.584-1.314 1.313v2.905c0 .717.597 1.314 1.314 1.314zM30.218 39.836c.73 0 1.314-.584 1.314-1.314v-2.905c0-.73-.584-1.313-1.314-1.313-.73 0-1.313.584-1.313 1.313v2.905c0 .717.584 1.314 1.313 1.314zM8.821 48.816c.73 0 1.314-.583 1.314-1.313v-2.905c0-.73-.584-1.313-1.314-1.313-.73 0-1.313.583-1.313 1.313v2.905c0 .73.584 1.313 1.313 1.313zM15.958 48.816c.73 0 1.313-.583 1.313-1.313v-2.905c0-.73-.583-1.313-1.313-1.313s-1.313.583-1.313 1.313v2.905c0 .73.584 1.313 1.313 1.313zM23.082 48.816c.73 0 1.313-.583 1.313-1.313v-2.905c0-.73-.584-1.313-1.313-1.313-.73 0-1.314.583-1.314 1.313v2.905c0 .73.597 1.313 1.314 1.313zM30.218 48.816c.73 0 1.314-.583 1.314-1.313v-2.905c0-.73-.584-1.313-1.314-1.313-.73 0-1.313.583-1.313 1.313v2.905c0 .73.584 1.313 1.313 1.313zM8.821 57.81c.73 0 1.314-.583 1.314-1.313v-2.918c0-.73-.584-1.314-1.314-1.314-.73 0-1.313.584-1.313 1.314v2.918c0 .716.584 1.313 1.313 1.313zM15.958 57.81c.73 0 1.313-.583 1.313-1.313v-2.918c0-.73-.583-1.314-1.313-1.314s-1.313.584-1.313 1.314v2.918c0 .716.584 1.313 1.313 1.313zM23.082 57.81c.73 0 1.313-.583 1.313-1.313v-2.918c0-.73-.584-1.314-1.313-1.314-.73 0-1.314.584-1.314 1.314v2.918c0 .716.597 1.313 1.314 1.313zM30.218 57.81c.73 0 1.314-.583 1.314-1.313v-2.918c0-.73-.584-1.314-1.314-1.314-.73 0-1.313.584-1.313 1.314v2.918c0 .716.584 1.313 1.313 1.313z"/>
    </g>
</svg>
