<svg xmlns="http://www.w3.org/2000/svg" width="65" height="65" viewBox="0 0 65 65">
    <g fill="#FFF" fill-rule="evenodd">
        <path fill-rule="nonzero" d="M32.5 0a6.5 6.5 0 1 0 0 13 6.5 6.5 0 0 0 0-13zm0 10.833a4.333 4.333 0 1 1 0-8.666 4.333 4.333 0 0 1 0 8.666zM36.833 14.083h-.255l-.229.114a8.636 8.636 0 0 1-7.698 0l-.229-.114h-.255A5.423 5.423 0 0 0 22.75 19.5V26A3.25 3.25 0 0 0 26 29.25h13A3.25 3.25 0 0 0 42.25 26v-6.5a5.423 5.423 0 0 0-5.417-5.417zM40.083 26c0 .598-.485 1.083-1.083 1.083H26A1.083 1.083 0 0 1 24.917 26v-6.5a3.25 3.25 0 0 1 3.019-3.241 10.842 10.842 0 0 0 9.128 0 3.25 3.25 0 0 1 3.02 3.241V26zM55.25 35.75a6.5 6.5 0 1 0 6.5 6.5 6.506 6.506 0 0 0-6.5-6.5zm0 10.833a4.333 4.333 0 1 1 0-8.666 4.333 4.333 0 0 1 0 8.666z"/>
        <path fill-rule="nonzero" d="M59.583 49.833h-.255l-.229.109a8.637 8.637 0 0 1-7.698 0l-.229-.109h-.255A5.423 5.423 0 0 0 45.5 55.25v6.5A3.25 3.25 0 0 0 48.75 65h13A3.25 3.25 0 0 0 65 61.75v-6.5a5.423 5.423 0 0 0-5.417-5.417zm3.25 11.917c0 .598-.485 1.083-1.083 1.083h-13a1.083 1.083 0 0 1-1.083-1.083v-6.5a3.25 3.25 0 0 1 3.019-3.241 10.842 10.842 0 0 0 9.128 0 3.25 3.25 0 0 1 3.02 3.241v6.5zM9.75 35.75a6.5 6.5 0 1 0 6.5 6.5 6.506 6.506 0 0 0-6.5-6.5zm0 10.833a4.333 4.333 0 1 1 0-8.666 4.333 4.333 0 0 1 0 8.666z"/>
        <path fill-rule="nonzero" d="M14.083 49.833h-.255l-.229.109a8.637 8.637 0 0 1-7.698 0l-.229-.109h-.255A5.423 5.423 0 0 0 0 55.25v6.5A3.25 3.25 0 0 0 3.25 65h13a3.25 3.25 0 0 0 3.25-3.25v-6.5a5.423 5.423 0 0 0-5.417-5.417zm3.25 11.917c0 .598-.485 1.083-1.083 1.083h-13a1.083 1.083 0 0 1-1.083-1.083v-6.5a3.25 3.25 0 0 1 3.019-3.241 10.842 10.842 0 0 0 9.128 0 3.25 3.25 0 0 1 3.02 3.241v6.5z"/>
        <path d="M43.248 55.017l-.001-.004a1.083 1.083 0 0 0-1.422-.572 24.03 24.03 0 0 1-15.451 1.064l1.014-.298a1.084 1.084 0 1 0-.609-2.08l-4.333 1.27c-.017 0-.028.019-.044.024-.1.038-.194.09-.28.155a.946.946 0 0 0-.107.068 1.05 1.05 0 0 0-.266.369 1.085 1.085 0 0 0-.082.447c.026.147.062.292.108.434.007.015 0 .032.012.047l2.167 4.146a1.084 1.084 0 1 0 1.922-1.003l-.882-1.686a26.077 26.077 0 0 0 17.679-.962c.55-.233.808-.868.575-1.42zM61.433 28.484a1.083 1.083 0 0 0-1.532 0l-1.533 1.533a25.96 25.96 0 0 0-15.693-21.45 1.083 1.083 0 1 0-.85 1.993 23.798 23.798 0 0 1 14.33 19.146l-1.222-1.222a1.083 1.083 0 0 0-1.532 1.532l3.25 3.25a1.083 1.083 0 0 0 1.534 0l3.25-3.25a1.083 1.083 0 0 0-.002-1.532zM23.802 9.38a1.007 1.007 0 0 0-.028-.187c0-.01-.012-.016-.017-.027-.004-.01 0-.018 0-.027a1.039 1.039 0 0 0-.101-.15 1.094 1.094 0 0 0-.124-.178 1.017 1.017 0 0 0-.211-.144.953.953 0 0 0-.121-.088l-4.334-1.98a1.083 1.083 0 0 0-.899 1.97l2.244 1.026A25.96 25.96 0 0 0 6.5 32.5a1.083 1.083 0 0 0 2.167 0 23.796 23.796 0 0 1 11.725-20.523l-.784 1.637a1.083 1.083 0 0 0 .975 1.553c.416 0 .795-.24.975-.615l2.167-4.52c0-.011 0-.023.009-.034.028-.074.047-.151.058-.23.019-.058.033-.118.041-.178a1.08 1.08 0 0 0-.031-.21z"/>
    </g>
</svg>
