<svg xmlns="http://www.w3.org/2000/svg" width="21" height="17" viewBox="0 0 21 17">
    <g fill="#434EEA" fill-rule="evenodd">
        <path d="M14.09.023h4.607c.64 0 1.183.224 1.631.672.448.448.672.991.672 1.631v4.607a2.22 2.22 0 0 1-.672 1.631 2.222 2.222 0 0 1-1.631.672H16.01c-.32 0-.592.112-.816.336a1.11 1.11 0 0 0-.336.815v.384c0 .848.3 1.571.9 2.171.6.6 1.323.9 2.171.9h.768c.208 0 .388.076.54.228a.738.738 0 0 1 .228.54v1.535a.738.738 0 0 1-.228.54.739.739 0 0 1-.54.228h-.768a5.985 5.985 0 0 1-2.381-.486 6.188 6.188 0 0 1-1.962-1.313 6.19 6.19 0 0 1-1.313-1.962 5.984 5.984 0 0 1-.486-2.38V2.325c0-.64.224-1.184.672-1.631A2.221 2.221 0 0 1 14.09.023zM1.46.672A2.221 2.221 0 0 1 3.09 0h4.607c.64 0 1.184.224 1.631.672.448.448.672.991.672 1.631V6.91a2.22 2.22 0 0 1-.672 1.631 2.221 2.221 0 0 1-1.631.672H5.01c-.32 0-.592.112-.816.336a1.111 1.111 0 0 0-.336.815v.384c0 .848.3 1.571.9 2.171.6.6 1.323.9 2.171.9h.768c.208 0 .388.076.54.228a.738.738 0 0 1 .228.54v1.535a.738.738 0 0 1-.228.54.738.738 0 0 1-.54.228h-.768a5.985 5.985 0 0 1-2.381-.486 6.189 6.189 0 0 1-1.961-1.313 6.186 6.186 0 0 1-1.314-1.962 5.984 5.984 0 0 1-.486-2.38V2.302c0-.64.224-1.184.672-1.631z"/>
    </g>
</svg>
