<svg width="150" height="150" viewBox="0 0 150 150" fill="none" xmlns="http://www.w3.org/2000/svg">
<rect x="24" y="16" width="102" height="102" rx="20" fill="#007AFF"/>
<g clip-path="url(#clip0)">
<path d="M46.9931 97.6001C46.1254 97.6001 45.2677 97.6001 44.4 97.6001C44.4 82.0043 44.4 66.4085 44.4 50.8127C44.4 50.3839 44.4 49.9451 44.41 49.5163C44.4798 47.6018 44.9386 45.7769 45.7464 44.0618C46.5243 42.4165 47.5516 40.9406 48.8681 39.6443C50.1746 38.348 51.6606 37.3309 53.3162 36.573C55.3707 35.6456 57.5349 35.2667 59.7889 35.2667C75.437 35.2867 91.0852 35.2767 106.733 35.2767C106.733 36.1442 106.733 37.0018 106.733 37.8693C106.703 37.999 106.664 38.1186 106.634 38.2483C106.424 39.2654 106.314 40.3224 106.005 41.3096C105.237 43.7626 103.911 45.8866 102.066 47.6915C100.58 49.1374 98.8544 50.2343 96.9296 50.9822C95.1144 51.6902 93.1995 51.9794 91.2348 51.9694C81.4111 51.9594 71.5873 51.9594 61.7636 51.9594C61.5442 51.9594 61.3148 51.9594 61.1054 51.9594C61.1054 54.0535 61.1054 56.0478 61.1054 58.092C68.7549 58.092 76.3646 58.092 84.0041 58.092C84.1039 60.7744 83.8146 63.3372 82.6976 65.7802C81.7502 67.8544 80.4237 69.6293 78.7083 71.1251C77.6711 72.0225 76.5142 72.7505 75.2675 73.3388C73.6019 74.1266 71.8566 74.6451 70.0215 74.7049C67.2689 74.7947 64.5162 74.7548 61.7636 74.7648C61.5542 74.7648 61.3447 74.7648 61.0655 74.7648C61.0655 75.024 61.0655 75.2135 61.0655 75.4129C61.0655 77.6666 61.0754 79.9301 61.0555 82.1838C61.0455 82.9615 60.9956 83.7393 60.9059 84.5171C60.6566 86.671 59.8886 88.6554 58.7417 90.4802C57.5249 92.4148 55.9292 94.0202 53.9844 95.2368C52.3189 96.2838 50.5237 97.0217 48.5689 97.3208C48.0503 97.3807 47.5217 97.5003 46.9931 97.6001Z" fill="white"/>
</g>
<defs>
<clipPath id="clip0">
<rect width="62.3333" height="62.3333" fill="white" transform="translate(44.4 35.2667)"/>
</clipPath>
</defs>
</svg>
