<svg width="150" height="150" viewBox="0 0 150 150" fill="none" xmlns="http://www.w3.org/2000/svg">
<rect x="23" y="16" width="104" height="104" rx="20" fill="#2A2B35"/>
<g clip-path="url(#clip0)">
<path d="M96.6647 91.4C95.1309 91.4 93.5697 91.4 92.0359 91.4C91.7894 91.3182 91.5429 91.2092 91.2964 91.1819C80.6695 89.8192 72.6445 82.3245 70.6725 71.8591C70.4808 70.8234 70.3712 69.7605 70.2343 68.7522C68.3444 69.9513 66.5094 71.096 64.6743 72.2951C67.6049 77.6641 70.5356 83.0331 73.4388 88.4021C74.2879 89.9828 73.7949 90.8004 71.9872 90.8276C69.5222 90.8549 67.0846 90.7731 64.6195 90.8549C63.3596 90.9094 62.6475 90.4461 62.0724 89.3287C59.4978 84.096 56.8411 78.9178 54.1569 73.7123C53.9378 73.3035 53.4722 72.7857 53.0614 72.7584C51.8015 72.6222 50.5416 72.7039 49.1447 72.7039C49.1447 73.3308 49.1447 73.7941 49.1447 74.2847C49.1447 79.1631 49.1447 84.0415 49.1447 88.9199C49.1447 90.3916 48.7339 90.8004 47.2823 90.8004C45.009 90.8276 42.7357 90.8276 40.4624 90.8004C38.9834 90.8004 38.6 90.4188 38.6 88.9471C38.6 74.6935 38.6 60.4398 38.6 46.2134C38.6 44.6872 38.9834 44.3056 40.5446 44.3056C46.9536 44.3056 53.3627 44.2784 59.7717 44.3056C66.0712 44.3601 71.2751 48.0121 73.4936 53.8444C73.6031 54.1169 73.7127 54.3622 73.877 54.7438C74.1235 54.4167 74.2605 54.226 74.3974 54.0624C82.8606 42.2616 98.8558 40.2448 110.031 49.5383C111.263 50.574 111.318 51.0373 110.25 52.1819C108.798 53.7354 107.346 55.2888 105.867 56.8151C104.772 57.9597 104.334 57.9597 103.101 57.0058C97.2125 52.3727 88.7219 53.5719 84.2849 59.6767C82.4772 62.1568 83.0797 65.1547 85.6817 66.7899C86.0104 66.9807 86.3116 67.1987 86.7499 67.4985C86.3938 67.7438 86.2295 67.88 86.0378 67.9891C82.9154 69.8151 82.3402 72.922 84.6135 75.7564C88.4206 80.4985 94.364 81.7794 100.006 79.9534C100.307 79.8444 100.746 79.4629 100.746 79.1903C100.828 78.1274 100.773 77.0645 100.773 75.8926C99.4036 75.8926 98.2259 75.8654 97.0481 75.8926C95.8704 75.9199 95.2952 75.4021 95.2952 74.2029C95.3226 72.3496 95.2952 70.4964 95.2952 68.6431C95.2952 67.1714 95.6239 66.8444 97.1851 66.8444C101.239 66.8444 105.292 66.8717 109.318 66.8171C110.304 66.8171 110.962 67.1169 111.345 68.0163C111.345 74.0666 111.345 80.1169 111.345 86.1945C110.852 86.6306 110.414 87.2301 109.839 87.4754C107.401 88.4566 104.964 89.4649 102.471 90.2281C100.636 90.8276 98.6093 91.0457 96.6647 91.4ZM49.1995 64.228C52.6505 64.228 55.9646 64.2553 59.2787 64.2008C59.9634 64.1735 60.7029 63.8738 61.3055 63.5195C62.4832 62.8654 62.6749 61.966 61.7711 60.9849C61.0864 60.249 60.2099 59.6767 59.3609 58.9953C59.6074 58.8591 59.8265 58.7228 60.0456 58.5865C61.6615 57.6872 62.6749 56.4335 62.2915 55.5341C61.6615 54.0624 60.2373 53.8989 58.8678 53.8717C56.5124 53.8171 54.1569 53.8717 51.8015 53.8717C50.9524 53.8717 50.1308 53.8717 49.2543 53.8717C49.1995 57.4146 49.1995 60.7396 49.1995 64.228Z" fill="white"/>
</g>
<defs>
<clipPath id="clip0">
<rect width="72.8" height="47.6667" fill="white" transform="translate(38.6 43.7333)"/>
</clipPath>
</defs>
</svg>
